<svg width="58" height="48" viewBox="0 0 58 48" fill="none" xmlns="http://www.w3.org/2000/svg">
<path d="M41.6623 30.3312C41.6623 30.8658 41.3669 31.33 40.9167 31.5692L29.8023 37.8158C29.5772 37.9847 29.2958 38.0691 29.0004 38.0691C28.7049 38.0691 28.4235 37.9847 28.1984 37.8158L17.084 31.5692C16.8585 31.4507 16.6697 31.2726 16.5383 31.0543C16.4068 30.8361 16.3377 30.586 16.3384 30.3312V17.6691C16.3384 17.1345 16.6338 16.6702 17.084 16.431L28.1984 10.1844C28.4235 10.0156 28.7049 9.93115 29.0004 9.93115C29.2958 9.93115 29.5772 10.0156 29.8023 10.1844L40.9167 16.431C41.3669 16.6702 41.6623 17.1345 41.6623 17.6691V30.3312ZM29.0004 12.956L26.3413 14.4614L34.6279 19.2307L37.3854 17.6691L29.0004 12.956ZM20.6153 17.6691L29.0004 22.3822L31.7578 20.8346L23.4854 16.0512L20.6153 17.6691ZM19.1522 29.5011L27.5935 34.2564V24.8161L19.1522 20.0749V29.5011ZM38.8486 29.5011V20.0749L30.4072 24.8161V34.2564L38.8486 29.5011Z" fill="white"/>
<path fill-rule="evenodd" clip-rule="evenodd" d="M18.738 2.36824C21.9261 0.805163 25.4185 -0.00426064 28.9554 1.68658e-05C41.8088 0.000562464 52.2713 10.4931 52.4995 23.5386L55.1562 20.8286C55.8081 20.1637 56.8634 20.1652 57.5134 20.8319C58.1635 21.4986 58.162 22.5781 57.5102 23.2429L52.2149 28.6442C51.9159 29.0933 51.4104 29.3904 50.8365 29.3904C49.916 29.3904 49.1697 28.6271 49.1697 27.6856V23.9739C49.1697 12.6262 40.1257 3.40971 28.9544 3.40971L28.9524 3.40971C25.915 3.40589 22.9161 4.10096 20.1789 5.44295C17.4417 6.78494 15.037 8.73919 13.1434 11.1599C12.5683 11.8951 11.5194 12.0142 10.8007 11.426C10.0819 10.8378 9.96539 9.76493 10.5405 9.02973C12.7474 6.20837 15.5495 3.93148 18.738 2.36824ZM7.57563 18.6632C6.99604 18.4622 6.32729 18.5966 5.86264 19.0705L0.489817 24.5509C-0.161999 25.2158 -0.163457 26.2952 0.486564 26.9619C1.13658 27.6286 2.19193 27.6301 2.84375 26.9653L5.4717 24.2847C5.61098 37.4227 16.1042 48 29.0191 48H29.0215C32.5467 47.9948 36.0264 47.1874 39.2072 45.6366C42.3881 44.0857 45.19 41.8303 47.4087 39.0344C47.9888 38.3033 47.8796 37.2297 47.1649 36.6363C46.4502 36.0429 45.4005 36.1546 44.8204 36.8856C42.9144 39.2875 40.5068 41.2257 37.7728 42.5587C35.0388 43.8917 32.0474 44.5858 29.0167 44.5903C17.8418 44.589 8.80386 35.3806 8.80386 24.0199V20.3082C8.80386 19.5212 8.28307 18.8603 7.57563 18.6632Z" fill="white"/>
</svg>
