<svg width="128" height="128" viewBox="0 0 128 128" fill="none" xmlns="http://www.w3.org/2000/svg">
<g clip-path="url(#clip0_1621_1154)">
<rect width="128" height="128" rx="21.3333" fill="url(#paint0_linear_1621_1154)"/>
<circle cx="64" cy="64" r="34.1333" fill="#F8F3FF"/>
<mask id="mask0_1621_1154" style="mask-type:alpha" maskUnits="userSpaceOnUse" x="29" y="29" width="70" height="70">
<circle cx="64" cy="64" r="34.1333" fill="#F8F3FF"/>
</mask>
<g mask="url(#mask0_1621_1154)">
<path d="M79.5609 71.2923C79.5609 72.126 79.0925 72.85 78.3789 73.223L60.7603 82.9639C60.4034 83.2271 59.9574 83.3588 59.4891 83.3588C59.0207 83.3588 58.5747 83.2271 58.2179 82.9639L40.5993 73.223C40.2417 73.0381 39.9425 72.7605 39.7341 72.4201C39.5257 72.0797 39.4161 71.6897 39.4172 71.2923V51.5473C39.4172 50.7136 39.8856 49.9896 40.5993 49.6166L58.2179 39.8757C58.5747 39.6125 59.0207 39.4808 59.4891 39.4808C59.9574 39.4808 60.4034 39.6125 60.7603 39.8757L78.3789 49.6166C79.0925 49.9896 79.5609 50.7136 79.5609 51.5473V71.2923ZM59.4891 44.1977L55.274 46.5452L68.4099 53.9825L72.7811 51.5473L59.4891 44.1977ZM46.1971 51.5473L59.4891 58.8968L63.8603 56.4835L50.7467 49.0243L46.1971 51.5473ZM43.8776 69.9979L57.2589 77.4133V62.6923L43.8776 55.2988V69.9979ZM75.1005 69.9979V55.2988L61.7193 62.6923V77.4133L75.1005 69.9979Z" fill="#7137B6"/>
<path d="M55.9404 64.3495C56.4134 62.5798 58.2279 61.5296 59.9932 62.0038L89.2802 69.8707C91.0455 70.3449 92.0931 72.1639 91.6201 73.9336L83.649 103.756C83.176 105.526 81.3615 106.576 79.5962 106.102L50.3092 98.2348C48.5439 97.7606 47.4963 95.9416 47.9693 94.1719L55.9404 64.3495Z" fill="#F8F3FF"/>
<path d="M58.4565 68.2177C58.8716 66.6675 60.464 65.7476 62.0133 66.163L85.6626 72.5035C87.2118 72.9189 88.1312 74.5123 87.7161 76.0624L80.8022 101.881C80.3871 103.431 78.7946 104.351 77.2454 103.936L53.5961 97.595C52.0468 97.1796 51.1274 95.5863 51.5425 94.0361L58.4565 68.2177Z" fill="#34A853"/>
<path fill-rule="evenodd" clip-rule="evenodd" d="M68.2659 89.5492C68.3127 89.5672 68.3609 89.5829 68.4104 89.5962C68.46 89.6094 68.5096 89.62 68.5591 89.6278L76.4954 91.7556C77.2048 91.9458 77.9339 91.5246 78.124 90.8148C78.1611 90.6762 78.1749 90.5368 78.1678 90.4009L79.6288 84.9452C79.6456 84.9015 79.6603 84.8564 79.6727 84.8102C79.6851 84.7639 79.6949 84.7175 79.7022 84.6712L81.1775 79.1619C81.1943 79.1181 81.209 79.0731 81.2214 79.0268C81.2393 78.9601 81.2517 78.8932 81.2591 78.8266C81.361 78.1644 80.9503 77.5178 80.2887 77.3404C80.159 77.3057 80.0287 77.2913 79.9012 77.2954L64.226 73.0928C63.5166 72.9026 62.7875 73.3238 62.5974 74.0336L62.5945 74.0446L61.0515 79.8067L61.0487 79.8169L61.046 79.8272L59.4426 85.8146C59.2525 86.5244 59.6735 87.2539 60.3829 87.4441C60.4311 87.4571 60.4794 87.4672 60.5277 87.4745L68.2659 89.5492ZM78.3012 79.6214L72.9567 78.1884L72.0963 81.4014L77.4408 82.8343L78.3012 79.6214ZM67.7094 86.6451L68.6251 83.2256L63.2734 81.7908L62.3577 85.2103L67.7094 86.6451ZM75.8368 88.8242L70.4923 87.3912L71.408 83.9718L76.7525 85.4047L75.8368 88.8242ZM70.1738 77.4423L69.3134 80.6553L63.9617 79.2205L64.8221 76.0075L70.1738 77.4423Z" fill="white"/>
</g>
<path d="M108.88 71.4057V63.9474C108.88 39.2373 88.7423 19.2 63.9062 19.2C57.1499 19.1917 50.4786 20.7033 44.3892 23.6222C38.2998 26.541 32.949 30.7921 28.7351 36.0588M19.0652 56.5817V64.04C19.0652 88.7776 39.1931 108.8 64.0392 108.8C70.7763 108.79 77.4263 107.282 83.5047 104.384C89.583 101.487 94.9366 97.2734 99.1752 92.0513" stroke="white" stroke-width="4.00701" stroke-linecap="round" stroke-linejoin="round"/>
<path d="M7.82227 67.5327L18.865 56.5204" stroke="white" stroke-width="4.00701" stroke-linecap="round" stroke-linejoin="round"/>
<path d="M109.135 71.0654L120.178 60.0531" stroke="white" stroke-width="4.00701" stroke-linecap="round" stroke-linejoin="round"/>
</g>
<defs>
<linearGradient id="paint0_linear_1621_1154" x1="59.0222" y1="-14.5778" x2="91.3778" y2="149.689" gradientUnits="userSpaceOnUse">
<stop stop-color="#7B4CB4"/>
<stop offset="1" stop-color="#5D0EBC"/>
</linearGradient>
<clipPath id="clip0_1621_1154">
<rect width="128" height="128" fill="white"/>
</clipPath>
</defs>
</svg>
