<svg width="55" height="55" viewBox="0 0 55 55" fill="none" xmlns="http://www.w3.org/2000/svg">
<circle cx="27.5" cy="27.5" r="27.5" fill="#FEF7FA"/>
<path d="M27.4043 39.471L12.2939 22.7081L17.5433 14.8828H37.0323L42.2716 22.6931L27.4043 39.471Z" fill="#FF3997"/>
<path d="M27.4082 39.4668L42.2717 22.6931L37.0325 14.8828H27.4082V39.4668Z" fill="#D6298C"/>
<path d="M12.2939 22.708L27.4043 39.4709L42.2295 22.7408L12.2939 22.708Z" fill="#FF5CA8"/>
<path d="M27.4082 22.7246V39.4667L42.2297 22.7408L27.4082 22.7246Z" fill="#FF3997"/>
<path d="M27.4044 39.4713L21.1887 22.7412H33.4132L27.4044 39.4713Z" fill="#FF3997"/>
<path d="M33.4132 22.7409H21.1887L27.4085 14.8828L33.4132 22.7409Z" fill="#D6298C"/>
<path d="M12.2939 22.7081L21.1886 22.7409L17.5433 14.8828L12.2939 22.7081Z" fill="#D6298C"/>
<path d="M42.3077 22.7081L33.4131 22.7409L37.0584 14.8828L42.3077 22.7081Z" fill="#FF5CA8"/>
<path d="M27.4082 22.7412V39.4609L33.4133 22.7412H27.4082Z" fill="#D6298C"/>
<path d="M27.4082 14.8838V22.7412H33.4133L27.4082 14.8838Z" fill="#BF1B81"/>
<path d="M42.308 22.7081L33.4133 22.7409L37.0587 14.8828L42.308 22.7081Z" fill="#BF1B81"/>
</svg>
