<svg width="55" height="55" viewBox="0 0 55 55" fill="none" xmlns="http://www.w3.org/2000/svg">
<circle cx="27.5" cy="27.5" r="27.5" fill="#F3F9FF"/>
<path d="M34.8195 27.4576L32.2754 28.7946C31.5108 29.1985 30.5393 29.1216 29.842 28.6166C29.1302 28.0972 28.7792 27.2316 28.9282 26.3611L29.414 23.5285L27.3556 21.5231C26.7208 20.9075 26.4996 19.9985 26.7689 19.1569C26.942 18.6231 27.3027 18.2047 27.7596 17.9258H19.1319C17.8575 17.9258 16.8235 18.9598 16.8235 20.2342V32.5457C16.8235 33.8202 17.8575 34.8542 19.1319 34.8542H19.9014V38.7015C19.9014 39.0141 20.0889 39.293 20.3775 39.4133C20.4737 39.4517 20.5747 39.471 20.6708 39.471C20.8728 39.471 21.07 39.394 21.2143 39.245L25.6051 34.8542H36.0603C37.3347 34.8542 38.3687 33.8202 38.3687 32.5457V29.0543C38.0272 29.0446 37.6858 28.9629 37.3636 28.7994L34.8195 27.4576Z" fill="#2196F3"/>
<path d="M41.4079 19.6331C41.3165 19.3542 41.0761 19.1522 40.7875 19.1089L37.1422 18.5799L35.5118 15.276C35.2521 14.7518 34.3913 14.7518 34.1316 15.276L32.5013 18.5798L28.8559 19.1088C28.5674 19.1521 28.3269 19.3541 28.2355 19.633C28.1441 19.912 28.2211 20.215 28.4279 20.4218L31.0633 22.9947L30.4429 26.6256C30.3949 26.9142 30.5103 27.2075 30.7507 27.3759C30.8854 27.472 31.0441 27.5249 31.2028 27.5249C31.3278 27.5249 31.4481 27.4961 31.5587 27.4336L34.8193 25.7215L38.0799 27.4336C38.3396 27.5682 38.6522 27.549 38.8879 27.3759C39.1235 27.2027 39.2438 26.9142 39.1957 26.6256L38.5705 22.9947L41.2059 20.4218C41.4223 20.215 41.4993 19.912 41.4079 19.6331Z" fill="#0788FF"/>
</svg>
