<svg width="55" height="55" viewBox="0 0 55 55" fill="none" xmlns="http://www.w3.org/2000/svg">
<circle cx="27.5" cy="27.5" r="27.5" fill="#F9F5FF"/>
<path d="M27.8229 14.2354C25.2938 14.2331 22.8196 14.9726 20.7066 16.3623C18.5937 17.7521 16.9346 19.731 15.935 22.0541C14.9353 24.3772 14.6389 26.9424 15.0825 29.4323C15.5261 31.9221 16.6901 34.2272 18.4306 36.0621L17.8681 40.1177H27.8229C31.2551 40.1177 34.5467 38.7543 36.9737 36.3273C39.4006 33.9004 40.764 30.6087 40.764 27.1765C40.764 23.7443 39.4006 20.4527 36.9737 18.0257C34.5467 15.5988 31.2551 14.2354 27.8229 14.2354Z" fill="#CFB8F7"/>
<path d="M37.91 19.0806C35.5257 17.1623 32.5383 16.1518 29.479 16.2287C26.4198 16.3056 23.487 17.465 21.2021 19.5007C18.9171 21.5364 17.4282 24.3164 17 27.3465C16.5719 30.3766 17.2322 33.4604 18.8636 36.0495L17.8681 40.118H27.8228C30.2624 40.1195 32.6526 39.431 34.7176 38.1319C36.7825 36.8329 38.4379 34.9763 39.4927 32.7765C40.5475 30.5767 40.9585 28.1235 40.6785 25.7001C40.3984 23.2766 39.4387 20.9818 37.91 19.0806Z" fill="#9660F1"/>
<path d="M26.8273 24.1896V21.2032C26.8273 20.4112 27.142 19.6516 27.702 19.0915C28.2621 18.5314 29.0217 18.2168 29.8138 18.2168C30.0778 18.2168 30.331 18.3217 30.5177 18.5084C30.7044 18.6951 30.8092 18.9483 30.8092 19.2123V21.2032C30.8092 22.2593 31.2288 23.2721 31.9755 24.0189C32.7223 24.7656 33.7351 25.1851 34.7911 25.1851V32.1534H31.8047L30.6888 33.2694C30.4114 33.5468 30.0821 33.7669 29.7196 33.9171C29.3572 34.0672 28.9687 34.1444 28.5764 34.1444H22.8454C22.3174 34.1444 21.811 33.9346 21.4376 33.5613C21.0643 33.1879 20.8545 32.6815 20.8545 32.1534V26.1806C20.8545 25.6526 21.0643 25.1462 21.4376 24.7728C21.811 24.3994 22.3174 24.1896 22.8454 24.1896H26.8273Z" fill="#F9E9DC"/>
<path d="M30.6878 33.2696L31.8047 32.1537H34.7912V25.1854C33.7351 25.1854 32.7223 24.7659 31.9755 24.0191C31.2288 23.2724 30.8093 22.2595 30.8093 21.2035V20.208C30.2812 20.208 29.7748 20.4178 29.4014 20.7911C29.0281 21.1645 28.8183 21.6709 28.8183 22.199V26.1809H23.8409C23.5769 26.1809 23.3237 26.2857 23.137 26.4724C22.9503 26.6591 22.8455 26.9123 22.8455 27.1763V34.1447H28.5764C29.3684 34.1445 30.1279 33.8297 30.6878 33.2696Z" fill="#F4D9C1"/>
</svg>
